<?xml version="1.0" standalone="no"?>
<!DOCTYPE svg PUBLIC "-//W3C//DTD SVG 20010904//EN"
 "http://www.w3.org/TR/2001/REC-SVG-20010904/DTD/svg10.dtd">
<svg version="1.0" xmlns="http://www.w3.org/2000/svg"
 width="450.000000pt" height="450.000000pt" viewBox="0 0 450.000000 450.000000"
 preserveAspectRatio="xMidYMid meet">
<metadata>
Created by potrace 1.11, written by Peter Selinger 2001-2013
</metadata>
<g transform="translate(0.000000,450.000000) scale(0.100000,-0.100000)"
fill="#000000" stroke="none">
<path d="M2789 4276 c-46 -34 -79 -101 -79 -158 0 -14 -5 -28 -11 -30 -12 -4
-95 -240 -139 -396 -15 -57 -33 -108 -38 -115 -12 -14 -40 -91 -83 -227 -17
-52 -37 -115 -45 -140 -8 -25 -20 -62 -25 -84 -5 -21 -15 -48 -21 -60 -7 -11
-21 -50 -33 -85 -20 -62 -45 -92 -45 -56 0 16 -14 36 -86 123 -17 20 -33 42
-35 47 -2 6 -30 49 -61 97 -31 47 -70 115 -86 150 -43 95 -80 147 -175 250
-107 116 -151 177 -213 298 -58 113 -125 185 -164 176 -14 -4 -41 -8 -60 -10
-37 -5 -60 -28 -60 -60 0 -24 8 -39 70 -133 25 -37 52 -81 60 -97 8 -16 40
-57 70 -92 30 -34 80 -94 110 -134 30 -40 81 -102 113 -139 32 -36 72 -95 89
-131 18 -36 44 -83 59 -105 14 -22 30 -51 34 -65 4 -14 20 -43 35 -65 15 -22
53 -83 85 -135 32 -52 70 -110 86 -128 34 -39 35 -46 9 -79 -26 -33 -26 -86 2
-188 18 -68 21 -110 22 -278 1 -110 -2 -201 -6 -203 -4 -3 -63 51 -130 119
-68 68 -159 154 -204 190 -75 61 -158 148 -180 189 -5 10 -32 42 -59 72 -28
30 -60 69 -73 85 -33 43 -68 41 -113 -5 l-34 -35 -2 -162 c-4 -292 -3 -316 14
-434 13 -90 18 -198 19 -448 6 -765 15 -874 90 -1089 32 -89 43 -110 64 -118
14 -6 33 -14 42 -19 50 -25 88 -1 104 66 4 17 11 35 16 41 10 13 -2 75 -31
169 -34 107 -61 310 -54 406 4 44 0 89 -11 133 -18 70 -17 122 5 371 6 75 6
166 -2 285 -18 286 -22 390 -14 390 4 0 17 -9 29 -19 21 -19 131 -114 151
-130 6 -5 57 -58 114 -120 62 -66 132 -130 173 -157 84 -55 93 -74 102 -209 3
-55 13 -138 21 -185 8 -47 15 -121 16 -165 1 -143 9 -176 48 -202 41 -28 98
-30 118 -5 7 9 20 32 28 51 14 31 14 37 -1 58 -10 17 -18 66 -25 151 -11 158
-28 281 -40 303 -10 19 -6 95 5 106 3 3 6 17 6 30 0 13 6 23 14 23 8 0 45 34
83 76 37 43 87 96 109 119 23 24 45 52 48 63 4 12 16 24 27 27 10 4 24 16 30
28 7 12 25 38 40 58 16 20 42 64 58 96 17 33 37 66 46 73 19 15 75 97 75 109
0 5 7 14 15 21 12 10 16 7 22 -17 12 -42 7 -410 -6 -474 -9 -44 -8 -89 5 -225
23 -245 31 -405 22 -439 -11 -42 -10 -200 2 -292 6 -43 13 -98 16 -123 5 -34
15 -53 44 -82 71 -71 113 -45 140 87 l18 90 -25 55 c-25 54 -26 59 -28 327 -2
149 -7 277 -11 285 -13 20 -14 288 -3 408 6 58 10 230 10 384 l0 278 -25 39
c-35 51 -70 73 -115 70 -29 -1 -44 -11 -78 -50 -57 -65 -99 -122 -158 -214
-93 -143 -214 -308 -259 -353 -11 -12 -32 -35 -45 -52 -13 -18 -27 -30 -31
-27 -5 3 -14 35 -20 73 -11 61 -10 73 9 129 25 74 28 191 7 271 -8 29 -13 77
-10 105 4 53 43 161 76 208 36 54 144 381 132 401 -3 4 -1 8 3 8 5 0 14 21 22
48 7 26 38 124 68 217 31 94 59 186 63 205 19 83 104 266 137 295 39 33 43
112 10 188 -31 68 -45 71 -108 23z"/>
</g>
</svg>
